# Blender v2.79 (sub 0) OBJ File: ''
# www.blender.org
mtllib untitled.mtl
o _0_0_node__0_0
v 0.300433 0.634993 -0.129626
v 0.111589 0.571923 -0.071087
v 0.165027 0.592737 -0.031696
v 0.281767 0.616176 -0.183572
v 0.153756 0.498341 -0.069563
v 0.107768 0.571866 0.161176
v 0.042746 0.540737 0.161176
v 0.080152 0.482347 0.161176
v 0.206105 0.781339 0.161246
v 0.278780 0.780591 -0.033805
v 0.165027 0.592737 -0.031696
v 0.107768 0.571866 0.161176
v 0.172656 0.590880 0.364863
v 0.288895 0.775568 0.359154
v 0.464396 0.635518 0.445442
v 0.481950 0.775568 0.359154
v 0.306450 0.635518 0.445442
v 0.122197 0.577017 0.405130
v 0.172656 0.590880 0.364863
v 0.160147 0.506730 0.389976
v 0.300433 0.634993 -0.129626
v 0.728099 0.540737 0.161176
v 0.659257 0.571923 -0.071087
v 0.663077 0.571866 0.161176
v 0.605819 0.592737 -0.031696
v 0.617090 0.498341 -0.069563
v 0.690695 0.482347 0.161176
v 0.564741 0.781339 0.161246
v 0.605819 0.592737 -0.031696
v 0.492066 0.780591 -0.033805
v 0.663077 0.571866 0.161176
v 0.598189 0.590880 0.364863
v 0.485672 0.621671 0.500206
v 0.648649 0.577017 0.405130
v 0.610698 0.506730 0.389976
v 0.598189 0.590880 0.364863
v 0.385423 0.548072 -0.170270
v 0.385423 0.549623 0.487411
v 0.147623 0.505622 0.043331
v 0.295170 0.586740 -0.137805
v 0.231672 0.371152 0.002754
v 0.206925 0.342931 0.161176
v 0.385423 0.302718 0.030388
v 0.280538 0.448077 0.392407
v 0.222739 0.375707 0.299527
v 0.385423 0.403767 0.392407
v 0.149774 0.508226 0.256273
v 0.548106 0.375707 0.299527
v 0.490308 0.448077 0.392407
v 0.385423 0.420935 0.439218
v 0.481212 0.457874 0.432144
v 0.289634 0.457874 0.432144
v 0.226168 0.549494 0.381571
v 0.385423 0.420935 0.439218
v 0.506973 0.556901 0.440723
v 0.263873 0.556901 0.440723
v 0.295170 0.586740 -0.137805
v 0.475675 0.586740 -0.137805
v 0.315069 0.428728 -0.097347
v 0.455776 0.428728 -0.097347
v 0.315069 0.428728 -0.097347
v 0.475675 0.586740 -0.137805
v 0.539173 0.371152 0.002754
v 0.455776 0.428728 -0.097347
v 0.385423 0.300977 0.281454
v 0.563920 0.342931 0.161176
v 0.623223 0.505622 0.043331
v 0.621072 0.508226 0.256273
v 0.544677 0.549494 0.381571
v 0.481212 0.457874 0.432144
v 0.506973 0.556901 0.440723
v 0.263873 0.556901 0.440723
v 0.385423 0.840653 0.064439
v 0.385423 0.841603 0.253339
v 0.289634 0.457874 0.432144
v 0.285173 0.621671 0.500206
v 0.306450 0.635518 0.445442
v 0.464396 0.635518 0.445442
v 0.470413 0.634993 -0.129626
v 0.470413 0.634993 -0.129626
v 0.489079 0.616176 -0.183572
v 0.306879 0.811920 0.161176
v 0.385423 0.976106 0.161176
v 0.385423 0.811920 0.082632
v 0.385423 0.811920 0.239719
v 0.463967 0.811920 0.161176
v 0.385423 0.811920 0.082632
v 0.305386 0.719004 0.359623
v 0.382853 0.815233 0.493282
v 0.384698 0.782205 0.314308
v 0.383151 0.655153 0.406678
v 0.462463 0.718354 0.361362
v 0.384698 0.782205 0.314308
v 0.305386 0.719004 -0.037272
v 0.384698 0.782205 0.008043
v 0.382853 0.815233 -0.170931
v 0.383151 0.655153 -0.084327
v 0.462463 0.718354 -0.039011
v 0.384698 0.782205 0.008043
v 0.589657 0.682806 0.184525
v 0.526301 0.753425 0.242294
v 0.692568 0.754677 0.316320
v 0.589121 0.612187 0.270263
v 0.525764 0.682806 0.328032
v 0.526301 0.753425 0.242294
v 0.181188 0.682806 0.184525
v 0.078278 0.754677 0.316320
v 0.244544 0.753425 0.242294
v 0.181725 0.612187 0.270263
v 0.245081 0.682806 0.328032
v 0.244544 0.753425 0.242294
v 0.589657 0.682806 0.125117
v 0.692568 0.754677 -0.006679
v 0.526301 0.753425 0.067348
v 0.589121 0.612187 0.039379
v 0.525764 0.682806 -0.018390
v 0.526301 0.753425 0.067348
v 0.181188 0.682806 0.125117
v 0.244544 0.753425 0.067348
v 0.078278 0.754677 -0.006679
v 0.181725 0.612187 0.039379
v 0.245081 0.682806 -0.018390
v 0.244544 0.753425 0.067348
vt 0.000000 0.000000
vt 0.000000 0.000000
vt 0.000000 0.000000
vt 0.000000 0.000000
vt 0.000000 0.000000
vt 0.000000 0.000000
vt 0.000000 0.000000
vt 0.000000 0.000000
vt 0.000000 0.000000
vt 0.000000 0.000000
vt 0.000000 0.000000
vt 0.000000 0.000000
vt 0.000000 0.000000
vt 0.000000 0.000000
vt 0.000000 0.000000
vt 0.000000 0.000000
vt 0.000000 0.000000
vt 0.000000 0.000000
vt 0.000000 0.000000
vt 0.000000 0.000000
vt 0.000000 0.000000
vt 0.000000 0.000000
vt 0.000000 0.000000
vt 0.000000 0.000000
vt 0.000000 0.000000
vt 0.000000 0.000000
vt 0.000000 0.000000
vt 0.742177 0.987198
vt 0.831353 1.266730
vt 0.619408 1.328110
vt 0.520196 0.992422
vt 0.632627 0.646723
vt 0.858648 0.701413
vt 1.001290 0.872644
vt 1.001290 1.120050
vt 1.154230 1.269280
vt 1.260670 0.989077
vt 1.383170 1.328110
vt 1.482380 0.992422
vt 1.369950 0.646723
vt 1.163840 0.708485
vt 0.877968 0.509963
vt 1.124610 0.509963
vt 0.868571 1.485970
vt 1.134010 1.485970
vt 0.000000 0.000000
vt 0.671517 0.420697
vt 0.972868 0.496381
vt 0.750307 0.249008
vt 0.505620 0.215923
vt 0.708211 -0.029937
vt 0.294592 -0.034284
vt 0.267112 0.251700
vt 0.368709 0.412313
vt 0.165803 0.481212
vt 0.121433 0.342359
vt 0.133805 0.055149
vt 0.024777 0.332020
vt 0.121433 0.342359
vt 0.267112 0.251700
vt 0.165803 0.481212
vt 0.026004 0.354318
vt 0.026330 0.461679
vt 0.026004 0.354318
vt 0.026330 0.461679
vt 0.250335 0.770888
vt 0.422696 0.961754
vt 0.077974 0.961754
vt 0.390567 0.837331
vt 0.110104 0.837331
vt 0.092671 1.058080
vt 0.412104 1.058080
vt 0.121099 0.766784
vt 0.383677 0.766784
vt 0.920357 0.278665
vt 0.920357 0.278665
vt 0.750307 0.249008
vt 0.972868 0.496381
vt 0.671517 0.420697
vt 0.505620 0.215923
vt 0.368709 0.412313
vt -0.006551 0.162208
vt -0.000019 -0.068746
vt -0.013084 0.162208
vt -0.000019 0.162208
vt 0.006514 0.162208
vt 0.013047 0.162208
vt -0.006551 0.162208
vt -0.000019 -0.068746
vt -0.013084 0.162208
vt -0.000019 0.162208
vt 0.006514 0.162208
vt 0.013047 0.162208
vt -0.006551 0.162208
vt -0.013084 0.162208
vt -0.000019 -0.068746
vt -0.000019 0.162208
vt 0.006514 0.162208
vt 0.013047 0.162208
vt -0.006551 0.162208
vt -0.013084 0.162208
vt -0.000019 -0.068746
vt -0.000019 0.162208
vt 0.006514 0.162208
vt 0.013047 0.162208
vt -0.006551 0.162208
vt -0.000019 -0.068746
vt -0.013084 0.162208
vt -0.000019 0.162208
vt 0.006514 0.162208
vt 0.013047 0.162208
vt -0.006551 0.162208
vt -0.000019 -0.068746
vt -0.013084 0.162208
vt -0.000019 0.162208
vt 0.006514 0.162208
vt 0.013047 0.162208
vt -0.006551 0.162208
vt -0.013084 0.162208
vt -0.000019 -0.068746
vt -0.000019 0.162208
vt 0.006514 0.162208
vt 0.013047 0.162208
vn -0.1765 0.9505 -0.2558
vn -0.8072 0.3259 -0.4920
vn -0.3446 0.9383 -0.0282
vn -0.3228 0.3839 -0.8651
vn 0.1765 0.9505 -0.2558
vn 0.3228 0.3839 -0.8651
vn 0.0000 -0.7297 -0.6837
vn 0.3402 -0.8255 -0.4503
vn 0.3215 -0.8360 0.4447
vn 0.4454 -0.8951 0.0209
vn 0.9811 0.1929 0.0150
vn 0.8072 0.3259 -0.4920
vn 0.4155 0.9096 -0.0008
vn 0.7668 0.3347 0.5477
vn 0.2754 0.9613 0.0062
vn 0.3337 0.4355 0.8361
vn 0.1725 0.9688 0.1779
vn -0.3337 0.4355 0.8361
vn 0.0000 -0.7246 0.6891
vn -0.3215 -0.8360 0.4447
vn -0.3402 -0.8255 -0.4503
vn -0.9811 0.1929 0.0150
vn -0.4155 0.9096 -0.0008
vn -0.7668 0.3347 0.5477
vn -0.4454 -0.8951 0.0209
vn -0.2755 0.9613 0.0062
vn -0.1725 0.9688 0.1779
vn -0.7020 0.7120 0.0153
vn -0.4208 0.7118 -0.5623
vn -0.7986 0.4354 -0.4155
vn -0.9051 0.4249 0.0127
vn -0.7746 0.4471 0.4474
vn -0.3979 0.7013 0.5914
vn 0.0000 0.9779 0.2091
vn 0.0000 0.9795 -0.2014
vn 0.4208 0.7118 -0.5623
vn 0.7020 0.7120 0.0153
vn 0.7986 0.4354 -0.4155
vn 0.9051 0.4249 0.0127
vn 0.7746 0.4471 0.4474
vn 0.3979 0.7013 0.5914
vn -0.2761 0.4788 0.8333
vn 0.2761 0.4788 0.8333
vn -0.2918 0.4952 -0.8183
vn 0.2918 0.4952 -0.8183
vn 0.3446 0.9383 -0.0282
vn -0.8656 -0.3482 -0.3598
vn -0.6836 -0.2465 -0.6869
vn -0.5983 -0.6355 -0.4881
vn -0.6655 -0.7463 0.0101
vn 0.0000 -0.9373 -0.3486
vn 0.0000 -0.9301 0.3671
vn -0.6226 -0.6209 0.4762
vn -0.8942 -0.3319 0.3004
vn -0.7819 -0.2864 0.5538
vn -0.5878 -0.5990 0.5437
vn 0.0000 -0.8302 0.5574
vn 0.0000 -0.9406 0.3395
vn 0.5878 -0.5990 0.5437
vn 0.6226 -0.6209 0.4762
vn 0.7819 -0.2864 0.5538
vn 0.6504 -0.6650 0.3670
vn 0.8005 -0.2552 0.5422
vn -0.6504 -0.6650 0.3670
vn -0.8005 -0.2552 0.5422
vn 0.0000 -0.0529 0.9986
vn 0.0428 -0.0493 0.9978
vn -0.0428 -0.0493 0.9978
vn 0.1176 -0.1160 0.9862
vn -0.1176 -0.1160 0.9862
vn 0.0000 -0.2480 -0.9687
vn -0.4025 -0.5442 -0.7361
vn 0.4025 -0.5442 -0.7361
vn 0.5983 -0.6355 -0.4881
vn 0.6836 -0.2465 -0.6869
vn 0.8656 -0.3482 -0.3598
vn 0.6655 -0.7463 0.0101
vn 0.8942 -0.3319 0.3004
vn -0.9021 0.4315 0.0000
vn 0.0000 1.0000 0.0000
vn -0.6698 0.3204 -0.6698
vn 0.0000 0.4315 0.9021
vn 0.9021 0.4315 0.0000
vn 0.6698 0.3204 -0.6698
vn -0.9048 0.2575 0.3390
vn -0.0065 0.5881 0.8088
vn -0.6652 0.7329 -0.1421
vn -0.0117 -0.4758 0.8795
vn 0.8992 0.2500 0.3590
vn 0.6743 0.7274 -0.1273
vn -0.9048 0.2575 -0.3390
vn -0.6652 0.7329 0.1421
vn -0.0065 0.5881 -0.8088
vn -0.0117 -0.4758 -0.8795
vn 0.8992 0.2500 -0.3590
vn 0.6743 0.7274 0.1273
vn 0.7214 0.1889 -0.6663
vn 0.2678 0.7425 -0.6140
vn 0.8213 0.4377 0.3657
vn 0.7152 -0.6222 0.3184
vn -0.0125 0.1889 0.9819
vn -0.2771 0.7425 0.6098
vn -0.7214 0.1889 -0.6663
vn -0.8213 0.4377 0.3657
vn -0.2678 0.7425 -0.6140
vn -0.7152 -0.6222 0.3184
vn 0.0125 0.1889 0.9819
vn 0.2771 0.7425 0.6098
vn 0.7214 0.1889 0.6663
vn 0.8213 0.4377 -0.3657
vn 0.2678 0.7425 0.6140
vn 0.7152 -0.6222 -0.3184
vn -0.0125 0.1889 -0.9819
vn -0.2771 0.7425 -0.6098
vn -0.7214 0.1889 0.6663
vn -0.2678 0.7425 0.6140
vn -0.8213 0.4377 -0.3657
vn -0.7152 -0.6222 -0.3184
vn 0.0125 0.1889 -0.9819
vn 0.2771 0.7425 -0.6098
usemtl mat_itemTogezo_mat
s 1
f 1/1/1 2/2/2 3/3/3
f 1/1/1 4/4/4 2/2/2
f 4/4/4 1/1/1 80/5/5
f 81/6/6 4/4/4 80/5/5
f 81/6/6 37/7/7 4/4/4
f 26/8/8 37/7/7 81/6/6
f 26/8/8 35/9/9 37/7/7
f 26/8/8 27/10/10 35/9/9
f 22/11/11 27/10/10 26/8/8
f 23/12/12 22/11/11 26/8/8
f 22/11/11 23/12/12 24/13/13
f 24/13/13 34/14/14 22/11/11
f 32/15/15 34/14/14 24/13/13
f 32/15/15 33/16/16 34/14/14
f 78/17/17 33/16/16 32/15/15
f 33/16/16 78/17/17 76/18/18
f 38/19/19 33/16/16 76/18/18
f 38/19/19 76/18/18 20/20/20
f 38/19/19 20/20/20 37/7/7
f 35/9/9 38/19/19 37/7/7
f 33/16/16 38/19/19 35/9/9
f 34/14/14 33/16/16 35/9/9
f 22/11/11 34/14/14 35/9/9
f 27/10/10 22/11/11 35/9/9
f 2/2/2 4/4/4 5/21/21
f 2/2/2 5/21/21 7/22/22
f 7/22/22 6/23/23 2/2/2
f 7/22/22 18/24/24 6/23/23
f 20/20/20 18/24/24 7/22/22
f 8/25/25 20/20/20 7/22/22
f 7/22/22 5/21/21 8/25/25
f 5/21/21 20/20/20 8/25/25
f 20/20/20 5/21/21 37/7/7
f 37/7/7 5/21/21 4/4/4
f 3/3/3 2/2/2 6/23/23
f 18/24/24 19/26/26 6/23/23
f 18/24/24 76/18/18 19/26/26
f 20/20/20 76/18/18 18/24/24
f 19/26/26 76/18/18 77/27/27
f 78/17/17 77/27/27 76/18/18
f 9/28/28 10/29/29 11/30/30
f 9/28/28 11/30/30 12/31/31
f 9/28/28 12/31/31 13/32/32
f 9/28/28 13/32/32 14/33/33
f 74/34/34 9/28/28 14/33/33
f 9/28/28 74/34/34 73/35/35
f 10/29/29 9/28/28 73/35/35
f 30/36/36 10/29/29 73/35/35
f 30/36/36 73/35/35 28/37/37
f 28/37/37 29/38/38 30/36/36
f 28/37/37 31/39/39 29/38/38
f 28/37/37 36/40/40 31/39/39
f 28/37/37 16/41/41 36/40/40
f 74/34/34 16/41/41 28/37/37
f 74/34/34 14/33/33 16/41/41
f 17/42/42 16/41/41 14/33/33
f 15/43/43 16/41/41 17/42/42
f 16/41/41 15/43/43 36/40/40
f 14/33/33 13/32/32 17/42/42
f 21/44/44 11/30/30 10/29/29
f 79/45/45 21/44/44 10/29/29
f 79/45/45 10/29/29 30/36/36
f 79/45/45 30/36/36 29/38/38
f 25/46/46 24/13/13 23/12/12
f 23/12/12 80/5/5 25/46/46
f 23/12/12 81/6/6 80/5/5
f 26/8/8 81/6/6 23/12/12
f 39/47/47 40/48/48 41/49/49
f 41/49/49 42/50/50 39/47/47
f 42/50/50 41/49/49 43/51/51
f 42/50/50 43/51/51 65/52/52
f 42/50/50 65/52/52 45/53/53
f 47/54/54 42/50/50 45/53/53
f 45/53/53 53/55/55 47/54/54
f 44/56/56 53/55/55 45/53/53
f 44/56/56 45/53/53 46/57/57
f 46/57/57 50/58/58 44/56/56
f 46/57/57 49/59/59 50/58/58
f 48/60/60 49/59/59 46/57/57
f 49/59/59 48/60/60 69/61/61
f 69/61/61 51/62/62 49/59/59
f 71/63/63 51/62/62 69/61/61
f 49/59/59 51/62/62 50/58/58
f 44/56/56 50/58/58 52/64/64
f 52/64/64 53/55/55 44/56/56
f 72/65/65 53/55/55 52/64/64
f 54/66/66 55/67/67 56/68/68
f 70/69/69 55/67/67 54/66/66
f 54/66/66 56/68/68 75/70/70
f 57/71/71 58/72/71 59/73/71
f 58/72/71 60/74/71 59/73/71
f 40/48/48 61/75/72 41/49/49
f 43/51/51 41/49/49 61/75/72
f 64/76/73 43/51/51 61/75/72
f 64/76/73 63/77/74 43/51/51
f 62/78/75 63/77/74 64/76/73
f 63/77/74 62/78/75 67/79/76
f 63/77/74 67/79/76 66/80/77
f 66/80/77 43/51/51 63/77/74
f 65/52/52 43/51/51 66/80/77
f 65/52/52 66/80/77 48/60/60
f 48/60/60 46/57/57 65/52/52
f 46/57/57 45/53/53 65/52/52
f 67/79/76 68/81/78 66/80/77
f 66/80/77 68/81/78 48/60/60
f 69/61/61 48/60/60 68/81/78
f 47/54/54 39/47/47 42/50/50
f 73/35/35 74/34/34 28/37/37
f 82/82/79 83/83/80 84/84/81
f 85/85/82 83/83/80 82/82/79
f 86/86/83 83/83/80 85/85/82
f 87/87/84 83/83/80 86/86/83
f 88/88/85 89/89/86 90/90/87
f 91/91/88 89/89/86 88/88/85
f 92/92/89 89/89/86 91/91/88
f 93/93/90 89/89/86 92/92/89
f 94/94/91 95/95/92 96/96/93
f 97/97/94 94/94/91 96/96/93
f 98/98/95 97/97/94 96/96/93
f 99/99/96 98/98/95 96/96/93
f 100/100/97 101/101/98 102/102/99
f 103/103/100 100/100/97 102/102/99
f 104/104/101 103/103/100 102/102/99
f 105/105/102 104/104/101 102/102/99
f 106/106/103 107/107/104 108/108/105
f 109/109/106 107/107/104 106/106/103
f 110/110/107 107/107/104 109/109/106
f 111/111/108 107/107/104 110/110/107
f 112/112/109 113/113/110 114/114/111
f 115/115/112 113/113/110 112/112/109
f 116/116/113 113/113/110 115/115/112
f 117/117/114 113/113/110 116/116/113
f 118/118/115 119/119/116 120/120/117
f 121/121/118 118/118/115 120/120/117
f 122/122/119 121/121/118 120/120/117
f 123/123/120 122/122/119 120/120/117
